<svg class="wprecipes__logo__svg" baseProfile="basic" xmlns="http://www.w3.org/2000/svg" width="128" height="128" viewBox="0 0 128 128">
  <path d="M63.848 29.312S17 26.368 17 66.048 63.848 128 63.848 128s46.976-22.272 46.976-61.952-46.976-36.736-46.976-36.736zm28.16-8.32C104.168 18.048 106.856 0 92.008 0c-14.72 0-15.36 9.088-19.84 18.688-1.024 2.304-2.176 4.224-3.456 5.888 4.224.128 8.576.64 12.672 1.536 3.2-2.176 6.912-4.224 10.624-5.12zm-56.32 0c3.84.896 7.424 2.944 10.752 5.12 4.992-1.024 9.472-1.408 12.672-1.536-1.28-1.664-2.56-3.584-3.584-5.888C51.048 9.088 50.536 0 35.688 0c-14.72 0-12.16 18.048 0 20.992z"/>
</svg>